<svg width="600" height="600" viewBox="0 0 600 600" fill="none" xmlns="http://www.w3.org/2000/svg">
<path d="M125.923 279.593C131.859 285.071 139.598 287.804 149.133 287.804C158.668 287.804 166.388 285.065 172.286 279.593C177.234 275.006 180.096 269.412 180.897 262.823V307.855H199.999L200.012 280.549H200.244C204.23 285.452 209.896 287.907 217.247 287.907C225.141 287.907 231.472 285.278 236.239 280.013C240.458 275.355 242.809 269.309 243.294 261.867C243.927 268.953 246.788 274.877 251.892 279.638C257.712 285.078 265.471 287.797 275.167 287.797C282.434 287.797 288.713 286.202 294.159 282.784C299.76 279.27 303.403 274.296 304.831 269.328V286.202H323.94V256.021C323.94 252.61 324.915 249.838 326.872 247.7C328.823 245.568 331.368 244.503 334.495 244.503C337.622 244.503 339.87 245.375 341.472 247.112C343.074 248.857 343.875 251.221 343.875 254.205V286.195H362.984V250.685C362.984 244.503 361.123 239.509 357.415 235.704C353.701 231.899 348.604 230 342.118 230C334.379 230 328.203 233.023 323.591 239.063H323.242V236.77C323.242 233.915 320.929 231.602 318.074 231.602H304.837V257.868C303.965 248.844 300.529 241.822 294.515 236.828C289.043 232.28 282.202 230 273.998 230C264.928 230 257.525 232.739 251.782 238.211C246.73 243.03 243.901 248.915 243.294 255.879C242.79 248.837 240.503 242.926 236.427 238.159C231.775 232.72 225.542 230 217.725 230C209.909 230 204.166 232.739 199.553 238.211H199.204V235.478C199.204 233.34 197.467 231.602 195.328 231.602H180.916V255C180.115 248.404 177.247 242.81 172.299 238.217C166.388 232.745 158.675 230.006 149.14 230.006C139.605 230.006 131.866 232.745 125.923 238.217C119.986 243.695 117.014 250.588 117.014 258.908C117.014 267.229 119.986 274.121 125.923 279.599V279.593ZM274.353 242.377C277.48 242.377 280.077 243.34 282.15 245.258C284.217 247.177 285.412 249.774 285.729 253.043H262.047C263.455 245.937 267.557 242.377 274.359 242.377H274.353ZM304.844 263.385V268.45H288.72C287.402 268.45 286.168 269.115 285.464 270.233C283.668 273.062 280.819 275.291 275.412 275.329C271.582 275.355 268.533 274.283 266.265 272.183C263.998 270.084 262.551 267.151 261.924 263.385H304.844ZM202.719 248.295C204.909 245.413 207.996 243.973 211.982 243.973C215.968 243.973 218.978 245.362 221.007 248.133C223.042 250.904 224.056 254.709 224.056 259.541C224.056 264.373 223.022 267.804 220.949 270.472C218.875 273.14 216.007 274.47 212.331 274.47C208.268 274.47 205.102 273.101 202.835 270.362C200.567 267.623 199.437 264.018 199.437 259.541C199.437 255.065 200.529 251.169 202.719 248.288V248.295ZM139.644 246.751C141.834 243.766 144.96 242.274 149.024 242.274C153.087 242.274 156.233 243.786 158.462 246.809C160.69 249.832 161.801 253.863 161.801 258.915C161.801 263.966 160.69 267.978 158.462 270.963C156.233 273.947 153.087 275.439 149.024 275.439C144.96 275.439 141.834 273.947 139.644 270.963C137.454 267.978 136.362 263.96 136.362 258.915C136.362 253.87 137.454 249.742 139.644 246.757V246.751Z" fill="#FFFAEE"/>
<path d="M362.983 293.779H343.875V307.855H362.983V293.779Z" fill="#FFFAEE"/>
<path d="M478.998 319.535C475.283 315.73 470.186 313.831 463.701 313.831C455.962 313.831 449.786 316.854 445.173 322.894H444.825V319.309C444.825 317.171 443.087 315.433 440.949 315.433H426.42V336.357C425.484 330.142 422.654 324.832 417.919 320.446C412.015 314.974 404.301 312.235 394.766 312.235C385.232 312.235 377.493 314.974 371.556 320.446C366.788 324.838 363.94 330.149 362.996 336.37V319.309C362.996 317.171 361.259 315.433 359.12 315.433H343.888V348.185C343.642 346.97 343.274 345.846 342.777 344.813C341.801 342.784 340.645 341.189 339.321 340.013C337.99 338.837 336.175 337.81 333.869 336.919C331.562 336.034 329.547 335.407 327.828 335.052C326.11 334.696 323.92 334.302 321.265 333.876C320.639 333.805 319.818 333.682 318.804 333.501C317.79 333.327 316.989 333.178 316.401 333.075C315.813 332.972 315.07 332.842 314.172 332.7C313.274 332.558 312.57 332.416 312.06 332.274C311.549 332.132 310.981 331.951 310.361 331.738C309.734 331.525 309.25 331.311 308.894 331.098C308.546 330.885 308.19 330.64 307.841 330.349C307.493 330.065 307.234 329.748 307.079 329.386C306.924 329.031 306.847 328.637 306.847 328.211C306.847 326.576 307.609 325.329 309.133 324.477C310.658 323.624 312.667 323.198 315.173 323.198C319.799 323.198 322.777 324.561 324.101 327.293C324.766 328.663 326.091 329.599 327.615 329.599H342.376C341.905 324.128 339.366 319.845 334.754 316.751C330.141 313.656 323.655 312.112 315.29 312.112C307.861 312.112 301.692 313.643 296.763 316.699C291.84 319.755 289.379 324.057 289.379 329.599C289.379 332.087 289.805 334.276 290.671 336.156C291.53 338.043 292.609 339.535 293.894 340.633C295.186 341.738 296.866 342.713 298.933 343.566C301.007 344.419 302.9 345.045 304.618 345.433C306.336 345.827 308.449 346.195 310.949 346.55C311.498 346.621 312.357 346.744 313.526 346.925C314.695 347.106 315.555 347.248 316.104 347.351C316.646 347.461 317.409 347.603 318.39 347.778C319.366 347.959 320.109 348.114 320.619 348.256C321.13 348.398 321.73 348.592 322.434 348.844C323.139 349.096 323.668 349.36 324.017 349.645C324.366 349.929 324.741 350.252 325.128 350.607C325.516 350.963 325.794 351.357 325.949 351.783C326.104 352.209 326.181 352.707 326.181 353.275C326.181 354.981 325.341 356.311 323.662 357.274C321.982 358.236 319.695 358.714 316.801 358.714C310.154 358.714 306.485 356.014 305.781 350.607H288.681C288.546 348.437 288.074 346.492 287.26 344.793C286.285 342.765 285.128 341.169 283.804 339.994C282.473 338.818 280.658 337.791 278.352 336.899C276.046 336.014 274.03 335.388 272.312 335.032C270.593 334.677 268.403 334.283 265.748 333.857C265.122 333.786 264.301 333.663 263.287 333.482C262.273 333.307 261.472 333.159 260.884 333.056C260.296 332.946 259.553 332.823 258.655 332.681C257.757 332.539 257.053 332.397 256.543 332.255C256.033 332.112 255.471 331.932 254.844 331.718C254.217 331.505 253.733 331.292 253.378 331.079C253.029 330.866 252.673 330.62 252.325 330.329C251.976 330.045 251.717 329.729 251.562 329.367C251.407 329.012 251.33 328.618 251.33 328.191C251.33 326.557 252.092 325.31 253.617 324.457C255.141 323.605 257.15 323.178 259.657 323.178C264.282 323.178 267.26 324.541 268.584 327.274C269.25 328.643 270.574 329.58 272.098 329.58H286.859C286.388 324.109 283.849 319.826 279.237 316.731C274.624 313.637 268.139 312.093 259.773 312.093C252.344 312.093 246.175 313.624 241.252 316.68C236.33 319.735 233.869 324.037 233.869 329.58C233.869 332.067 234.295 334.257 235.161 336.137C236.02 338.023 237.092 339.516 238.384 340.614C239.676 341.718 241.356 342.694 243.423 343.547C245.49 344.399 247.389 345.026 249.108 345.413C250.826 345.807 252.938 346.176 255.438 346.531C255.981 346.602 256.847 346.725 258.016 346.906C259.192 347.087 260.051 347.229 260.593 347.332C261.136 347.442 261.898 347.584 262.88 347.758C263.856 347.939 264.598 348.094 265.109 348.236C265.619 348.379 266.22 348.572 266.924 348.824C267.628 349.076 268.158 349.341 268.507 349.625C268.856 349.91 269.23 350.233 269.618 350.588C270.005 350.943 270.283 351.337 270.438 351.764C270.593 352.19 270.671 352.687 270.671 353.256C270.671 354.961 269.831 356.292 268.151 357.255C266.472 358.217 264.185 358.695 261.291 358.695C255.755 358.695 252.279 356.822 250.871 353.068C250.303 351.55 248.791 350.594 247.163 350.594H232.215C232.215 350.594 232.215 350.627 232.215 350.646H216.853C215.535 350.646 214.301 351.311 213.597 352.429C211.801 355.258 208.952 357.481 203.546 357.526C199.715 357.552 196.666 356.479 194.398 354.38C192.131 352.28 190.684 349.348 190.057 345.581H233.203C233.358 333.85 229.844 325 222.654 319.031C217.182 314.483 210.341 312.203 202.137 312.203C193.067 312.203 185.664 314.942 179.921 320.413C174.179 325.891 171.304 332.745 171.304 340.995C171.304 342.332 171.388 343.624 171.53 344.89C171.511 344.858 171.498 344.819 171.485 344.78C170.509 342.752 169.353 341.156 168.029 339.981C166.698 338.805 164.883 337.778 162.577 336.886C160.27 336.001 158.255 335.375 156.536 335.019C154.818 334.664 152.628 334.27 149.973 333.844C149.347 333.773 148.526 333.65 147.512 333.469C146.498 333.295 145.697 333.146 145.109 333.043C144.521 332.939 143.778 332.81 142.88 332.668C141.982 332.526 141.278 332.384 140.768 332.242C140.257 332.099 139.689 331.919 139.069 331.705C138.442 331.492 137.958 331.279 137.602 331.066C137.254 330.853 136.898 330.607 136.549 330.317C136.201 330.032 135.942 329.716 135.787 329.354C135.632 328.999 135.555 328.605 135.555 328.178C135.555 326.544 136.317 325.297 137.841 324.444C139.366 323.592 141.375 323.165 143.881 323.165C148.507 323.165 151.485 324.528 152.809 327.261C153.474 328.63 154.799 329.567 156.323 329.567H171.084C170.613 324.096 168.074 319.813 163.462 316.718C158.849 313.624 152.363 312.08 143.998 312.08C136.569 312.08 130.4 313.611 125.471 316.667C120.548 319.722 118.087 324.025 118.087 329.567C118.087 332.054 118.513 334.244 119.379 336.124C120.238 338.01 121.317 339.503 122.602 340.601C123.894 341.705 125.574 342.681 127.641 343.534C129.715 344.386 131.608 345.013 133.326 345.401C135.044 345.795 137.157 346.163 139.657 346.518C140.206 346.589 141.065 346.712 142.234 346.893C143.403 347.074 144.263 347.216 144.812 347.319C145.354 347.429 146.117 347.571 147.098 347.745C148.074 347.926 148.817 348.081 149.327 348.224C149.838 348.366 150.438 348.559 151.142 348.811C151.847 349.063 152.376 349.328 152.725 349.612C153.074 349.897 153.449 350.22 153.836 350.575C154.224 350.93 154.502 351.324 154.657 351.751C154.812 352.177 154.889 352.674 154.889 353.243C154.889 354.948 154.049 356.279 152.37 357.242C150.69 358.204 148.403 358.682 145.509 358.682C139.973 358.682 136.498 356.809 135.089 353.056C134.521 351.537 133.009 350.581 131.381 350.581H116.433C116.743 356.621 119.502 361.37 124.695 364.819C129.889 368.269 136.866 369.994 145.626 369.994C153.752 369.994 160.341 368.43 165.38 365.304C170.419 362.177 172.945 357.7 172.945 351.867C172.945 351.602 172.938 351.344 172.925 351.085C174.353 355.155 176.724 358.74 180.031 361.835C185.852 367.274 193.61 369.994 203.306 369.994C210.574 369.994 216.853 368.398 222.299 364.981C227.344 361.815 230.8 357.468 232.48 352.997C233.326 357.901 235.987 361.848 240.477 364.819C245.671 368.269 252.648 369.994 261.407 369.994C269.534 369.994 276.123 368.43 281.162 365.304C285.257 362.765 287.693 359.328 288.455 355.006C289.624 358.992 292.131 362.267 295.987 364.826C301.181 368.275 308.158 370 316.918 370C325.044 370 331.633 368.437 336.672 365.31C340.639 362.849 343.035 359.554 343.881 355.42V370H362.99V345.859C363.933 352.08 366.782 357.39 371.549 361.783C377.486 367.261 385.225 369.994 394.76 369.994C404.295 369.994 412.015 367.255 417.912 361.783C422.641 357.397 425.477 352.087 426.414 345.872V370H445.522V339.819C445.522 336.408 446.498 333.637 448.455 331.499C450.406 329.367 452.951 328.301 456.078 328.301C459.204 328.301 461.453 329.173 463.055 330.911C464.657 332.655 465.458 335.019 465.458 338.004V369.994H484.566V334.483C484.566 328.301 482.706 323.307 478.998 319.503V319.535ZM202.486 324.599C205.613 324.599 208.21 325.562 210.283 327.481C212.35 329.399 213.546 331.996 213.862 335.265H190.18C191.588 328.159 195.69 324.599 202.493 324.599H202.486ZM404.082 353.178C401.853 356.163 398.707 357.655 394.644 357.655C390.58 357.655 387.454 356.163 385.264 353.178C383.074 350.194 381.982 346.176 381.982 341.13C381.982 336.085 383.074 331.957 385.264 328.973C387.454 325.988 390.58 324.496 394.644 324.496C398.707 324.496 401.853 326.008 404.082 329.031C406.31 332.054 407.422 336.085 407.422 341.137C407.422 346.189 406.31 350.2 404.082 353.185V353.178Z" fill="#FFFAEE"/>
</svg>
