<svg width="199" height="54" viewBox="0 0 199 54" fill="none" xmlns="http://www.w3.org/2000/svg">
<path d="M22.9471 32.2837C24.4217 33.6923 26.344 34.3949 28.7123 34.3949C31.0806 34.3949 32.9981 33.6906 34.4631 32.2837C35.6922 31.1044 36.403 29.6659 36.602 27.9717V39.5507H41.3467L41.3499 32.5295H41.4077C42.3977 33.7903 43.8049 34.4215 45.6309 34.4215C47.5917 34.4215 49.1642 33.7454 50.3483 32.3917C51.3961 31.1941 51.9802 29.6394 52.1005 27.7259C52.2578 29.548 52.9686 31.0712 54.2362 32.2953C55.6819 33.6939 57.609 34.3932 60.0175 34.3932C61.8226 34.3932 63.3823 33.9829 64.7349 33.1043C66.1261 32.2007 67.031 30.9217 67.3857 29.6443V33.983H72.132V26.2226C72.132 25.3456 72.3743 24.633 72.8604 24.0832C73.345 23.5351 73.9772 23.261 74.7538 23.261C75.5305 23.261 76.0888 23.4853 76.4868 23.9321C76.8847 24.3805 77.0837 24.9885 77.0837 25.7559V33.9813H81.83V24.8506C81.83 23.261 81.3679 21.977 80.4469 20.9987C79.5242 20.0203 78.2582 19.532 76.6472 19.532C74.725 19.532 73.191 20.3094 72.0453 21.8624H71.9587V21.2728C71.9587 20.5386 71.3842 19.9439 70.675 19.9439H67.3873V26.6977C67.1706 24.3772 66.317 22.5717 64.8232 21.2877C63.4641 20.1183 61.7648 19.532 59.727 19.532C57.4742 19.532 55.6354 20.2363 54.2089 21.6432C52.9541 22.8823 52.2513 24.3955 52.1005 26.1861C51.9754 24.3756 51.4073 22.8557 50.3949 21.6299C49.2396 20.2313 47.6912 19.532 45.7496 19.532C43.8081 19.532 42.3816 20.2363 41.236 21.6432H41.1493V20.9406C41.1493 20.3908 40.7177 19.9439 40.1866 19.9439H36.6068V25.9602C36.4078 24.2643 35.6954 22.8258 34.4663 21.6448C32.9997 20.2379 31.0839 19.5337 28.7155 19.5337C26.3472 19.5337 24.4249 20.2379 22.9503 21.6448C21.4725 23.0534 20.7344 24.8257 20.7344 26.9651C20.7344 29.1045 21.4725 30.8768 22.9471 32.2854V32.2837ZM59.8153 22.7145C60.5919 22.7145 61.2369 22.962 61.752 23.4554C62.2655 23.9487 62.5623 24.6164 62.6409 25.4569H56.7586C57.1084 23.6298 58.1273 22.7145 59.8169 22.7145H59.8153ZM67.3889 28.1162V29.4184H63.3839C63.0565 29.4184 62.7501 29.5895 62.5752 29.8769C62.1291 30.6044 61.4215 31.1775 60.0784 31.1874C59.1269 31.1941 58.3696 30.9184 57.8064 30.3785C57.2432 29.8387 56.8837 29.0846 56.7281 28.1162H67.3889ZM42.0222 24.236C42.5662 23.4952 43.3331 23.1248 44.3232 23.1248C45.3132 23.1248 46.0609 23.4819 46.5647 24.1945C47.0702 24.9071 47.3221 25.8854 47.3221 27.1279C47.3221 28.3703 47.0654 29.2523 46.5503 29.9383C46.0352 30.6244 45.3228 30.9665 44.4098 30.9665C43.4005 30.9665 42.6143 30.6144 42.0511 29.9101C41.4879 29.2058 41.2071 28.279 41.2071 27.1279C41.2071 25.9768 41.4783 24.9752 42.0222 24.2344V24.236ZM26.3552 23.8391C26.8991 23.0717 27.6757 22.688 28.685 22.688C29.6943 22.688 30.4757 23.0766 31.0293 23.854C31.5829 24.6314 31.8589 25.6678 31.8589 26.9668C31.8589 28.2657 31.5829 29.2972 31.0293 30.0646C30.4757 30.832 29.6943 31.2157 28.685 31.2157C27.6757 31.2157 26.8991 30.832 26.3552 30.0646C25.8112 29.2972 25.5401 28.264 25.5401 26.9668C25.5401 25.6695 25.8112 24.6081 26.3552 23.8407V23.8391Z" fill="#191919"/>
<path d="M149.07 14.4492H144.324V18.0686H149.07V14.4492Z" fill="#191919"/>
<path d="M177.887 21.0718C176.964 20.0934 175.698 19.6051 174.087 19.6051C172.165 19.6051 170.631 20.3824 169.485 21.9355H169.399V21.0136C169.399 20.4638 168.967 20.017 168.436 20.017H164.827V25.3971C164.595 23.7992 163.892 22.4338 162.716 21.306C161.249 19.8991 159.333 19.1948 156.965 19.1948C154.597 19.1948 152.674 19.8991 151.2 21.306C150.016 22.4355 149.308 23.8008 149.074 25.4004V21.0136C149.074 20.4638 148.642 20.017 148.111 20.017H144.327V28.4384C144.266 28.1262 144.175 27.8371 144.051 27.5714C143.809 27.0498 143.522 26.6395 143.193 26.3372C142.862 26.0349 142.412 25.7708 141.839 25.5416C141.266 25.314 140.765 25.1529 140.338 25.0616C139.912 24.9702 139.368 24.8689 138.708 24.7593C138.553 24.741 138.349 24.7094 138.097 24.6629C137.845 24.6181 137.646 24.5799 137.5 24.5533C137.354 24.5267 137.169 24.4935 136.946 24.457C136.723 24.4204 136.548 24.3839 136.422 24.3473C136.295 24.3108 136.154 24.2643 136 24.2095C135.844 24.1546 135.724 24.0998 135.635 24.045C135.549 23.9902 135.461 23.9271 135.374 23.8523C135.287 23.7793 135.223 23.6979 135.185 23.6048C135.146 23.5135 135.127 23.4122 135.127 23.3025C135.127 22.8823 135.316 22.5617 135.695 22.3425C136.074 22.1232 136.573 22.0136 137.195 22.0136C138.344 22.0136 139.084 22.3641 139.413 23.0667C139.578 23.4188 139.907 23.6597 140.285 23.6597H143.952C143.835 22.2528 143.204 21.1515 142.059 20.3559C140.913 19.5602 139.302 19.1633 137.224 19.1633C135.379 19.1633 133.846 19.5569 132.622 20.3426C131.399 21.1282 130.788 22.2345 130.788 23.6597C130.788 24.2992 130.894 24.8622 131.109 25.3456C131.322 25.8306 131.59 26.2143 131.91 26.4967C132.231 26.7807 132.648 27.0315 133.161 27.2508C133.676 27.4701 134.146 27.6312 134.573 27.7308C135 27.8322 135.525 27.9268 136.146 28.0182C136.282 28.0365 136.496 28.068 136.786 28.1145C137.076 28.161 137.29 28.1976 137.426 28.2242C137.561 28.2524 137.75 28.2889 137.994 28.3338C138.236 28.3803 138.421 28.4202 138.548 28.4567C138.675 28.4932 138.824 28.5431 138.999 28.6079C139.174 28.6726 139.305 28.7407 139.392 28.8138C139.478 28.8869 139.571 28.97 139.668 29.0613C139.764 29.1527 139.833 29.254 139.872 29.3636C139.91 29.4733 139.929 29.6012 139.929 29.7473C139.929 30.1858 139.721 30.528 139.304 30.7755C138.886 31.023 138.318 31.1459 137.599 31.1459C135.948 31.1459 135.037 30.4516 134.862 29.0613H130.615C130.581 28.5032 130.464 28.0032 130.262 27.5664C130.019 27.0448 129.732 26.6346 129.403 26.3323C129.073 26.0299 128.622 25.7658 128.049 25.5366C127.476 25.3091 126.976 25.1479 126.549 25.0566C126.122 24.9652 125.578 24.8639 124.919 24.7543C124.763 24.736 124.559 24.7044 124.307 24.6579C124.055 24.6131 123.856 24.5749 123.71 24.5483C123.564 24.5201 123.38 24.4885 123.157 24.452C122.934 24.4154 122.759 24.3789 122.632 24.3423C122.505 24.3058 122.366 24.2593 122.21 24.2045C122.054 24.1497 121.934 24.0948 121.846 24.04C121.759 23.9852 121.671 23.9221 121.584 23.8474C121.498 23.7743 121.433 23.6929 121.395 23.5999C121.356 23.5085 121.337 23.4072 121.337 23.2976C121.337 22.8773 121.526 22.5567 121.905 22.3375C122.284 22.1182 122.783 22.0086 123.405 22.0086C124.554 22.0086 125.294 22.3591 125.623 23.0617C125.788 23.4138 126.117 23.6547 126.496 23.6547H130.162C130.045 22.2478 129.415 21.1465 128.269 20.3509C127.123 19.5553 125.512 19.1583 123.434 19.1583C121.589 19.1583 120.057 19.5519 118.834 20.3376C117.611 21.1233 117 22.2295 117 23.6547C117 24.2942 117.106 24.8573 117.321 25.3406C117.534 25.8256 117.801 26.2093 118.122 26.4917C118.442 26.7757 118.86 27.0266 119.373 27.2458C119.887 27.4651 120.358 27.6262 120.785 27.7259C121.212 27.8272 121.737 27.9219 122.358 28.0132C122.492 28.0315 122.707 28.063 122.998 28.1096C123.29 28.1561 123.503 28.1926 123.638 28.2192C123.773 28.2474 123.962 28.284 124.206 28.3288C124.448 28.3753 124.633 28.4152 124.76 28.4517C124.886 28.4883 125.036 28.5381 125.211 28.6029C125.385 28.6677 125.517 28.7358 125.604 28.8088C125.69 28.8819 125.783 28.965 125.88 29.0563C125.976 29.1477 126.045 29.249 126.083 29.3586C126.122 29.4683 126.141 29.5962 126.141 29.7423C126.141 30.1809 125.933 30.523 125.515 30.7705C125.098 31.018 124.53 31.1409 123.811 31.1409C122.436 31.1409 121.573 30.6592 121.223 29.6942C121.082 29.3038 120.707 29.058 120.302 29.058H116.589C116.589 29.058 116.589 29.0663 116.589 29.0713H112.774C112.446 29.0713 112.14 29.2424 111.965 29.5297C111.519 30.2573 110.811 30.8287 109.468 30.8403C108.517 30.8469 107.759 30.5712 107.196 30.0314C106.633 29.4915 106.273 28.7374 106.118 27.769H116.835C116.873 24.7526 116 22.477 114.214 20.9422C112.855 19.7729 111.156 19.1865 109.118 19.1865C106.866 19.1865 105.027 19.8908 103.6 21.2977C102.174 22.7062 101.46 24.4686 101.46 26.5897C101.46 26.9335 101.481 27.2657 101.516 27.5913C101.511 27.583 101.508 27.573 101.505 27.5631C101.262 27.0415 100.975 26.6312 100.646 26.3289C100.316 26.0266 99.8648 25.7625 99.2919 25.5333C98.7191 25.3057 98.2185 25.1446 97.7917 25.0533C97.3648 24.9619 96.8209 24.8606 96.1614 24.751C96.0058 24.7327 95.802 24.7011 95.5501 24.6546C95.2982 24.6098 95.0992 24.5716 94.9532 24.545C94.8072 24.5184 94.6226 24.4852 94.3996 24.4486C94.1766 24.4121 94.0017 24.3756 93.8749 24.339C93.7481 24.3025 93.6069 24.256 93.4529 24.2012C93.2973 24.1463 93.1769 24.0915 93.0887 24.0367C93.002 23.9819 92.9138 23.9188 92.8271 23.844C92.7405 23.7709 92.6763 23.6896 92.6378 23.5965C92.5993 23.5052 92.58 23.4039 92.58 23.2942C92.58 22.874 92.7694 22.5534 93.148 22.3342C93.5267 22.1149 94.0257 22.0053 94.6483 22.0053C95.7972 22.0053 96.5369 22.3557 96.8658 23.0584C97.0311 23.4105 97.36 23.6514 97.7387 23.6514H101.405C101.288 22.2445 100.657 21.1432 99.5118 20.3476C98.3661 19.5519 96.7551 19.1549 94.6772 19.1549C92.8319 19.1549 91.2996 19.5486 90.0753 20.3343C88.8526 21.1199 88.2413 22.2262 88.2413 23.6514C88.2413 24.2908 88.3472 24.8539 88.5622 25.3373C88.7756 25.8223 89.0435 26.206 89.3629 26.4884C89.6838 26.7724 90.101 27.0232 90.6144 27.2425C91.1295 27.4617 91.5996 27.6229 92.0264 27.7225C92.4533 27.8239 92.978 27.9185 93.5989 28.0099C93.7353 28.0282 93.9487 28.0597 94.2391 28.1062C94.5296 28.1527 94.743 28.1893 94.8794 28.2159C95.0142 28.2441 95.2035 28.2806 95.4474 28.3255C95.6897 28.372 95.8742 28.4119 96.001 28.4484C96.1277 28.4849 96.277 28.5348 96.4519 28.5996C96.6268 28.6643 96.7583 28.7324 96.845 28.8055C96.9316 28.8786 97.0247 28.9617 97.121 29.053C97.2172 29.1444 97.2862 29.2457 97.3247 29.3553C97.3632 29.4649 97.3825 29.5928 97.3825 29.739C97.3825 30.1775 97.1739 30.5197 96.7567 30.7672C96.3395 31.0147 95.7715 31.1376 95.0527 31.1376C93.6775 31.1376 92.8143 30.6559 92.4645 29.6909C92.3233 29.3005 91.9478 29.0547 91.5435 29.0547H87.8305C87.9075 30.6077 88.5927 31.8286 89.8827 32.7156C91.1728 33.6026 92.9057 34.0461 95.0815 34.0461C97.1001 34.0461 98.7368 33.6441 99.9883 32.8402C101.24 32.0362 101.867 30.8851 101.867 29.3852C101.867 29.3171 101.866 29.2507 101.862 29.1842C102.217 30.2307 102.806 31.1526 103.627 31.9482C105.073 33.3468 107 34.0461 109.409 34.0461C111.214 34.0461 112.774 33.6358 114.126 32.7571C115.379 31.9432 116.238 30.8253 116.655 29.6759C116.865 30.9366 117.526 31.9515 118.641 32.7156C119.932 33.6026 121.664 34.0461 123.84 34.0461C125.859 34.0461 127.495 33.6441 128.747 32.8402C129.764 32.1874 130.369 31.3037 130.559 30.1925C130.849 31.2173 131.472 32.0595 132.43 32.7172C133.72 33.6042 135.453 34.0477 137.628 34.0477C139.647 34.0477 141.284 33.6458 142.535 32.8418C143.52 32.209 144.116 31.3618 144.326 30.2988V34.0477H149.072V27.8405C149.306 29.44 150.014 30.8054 151.198 31.9349C152.673 33.3434 154.595 34.0461 156.963 34.0461C159.332 34.0461 161.249 33.3418 162.714 31.9349C163.889 30.8071 164.593 29.4417 164.826 27.8438V34.0477H169.572V26.2874C169.572 25.4104 169.814 24.6978 170.301 24.148C170.785 23.5999 171.417 23.3258 172.194 23.3258C172.971 23.3258 173.529 23.55 173.927 23.9968C174.325 24.4453 174.524 25.0533 174.524 25.8207V34.0461H179.27V24.9154C179.27 23.3258 178.808 22.0418 177.887 21.0635V21.0718ZM109.205 22.374C109.982 22.374 110.627 22.6215 111.142 23.1148C111.655 23.6082 111.952 24.2759 112.031 25.1164H106.148C106.498 23.2892 107.517 22.374 109.207 22.374H109.205ZM159.279 29.7224C158.725 30.4898 157.944 30.8735 156.935 30.8735C155.925 30.8735 155.149 30.4898 154.605 29.7224C154.061 28.955 153.79 27.9219 153.79 26.6246C153.79 25.3273 154.061 24.2659 154.605 23.4985C155.149 22.7311 155.925 22.3474 156.935 22.3474C157.944 22.3474 158.725 22.7361 159.279 23.5135C159.832 24.2908 160.108 25.3273 160.108 26.6263C160.108 27.9252 159.832 28.9567 159.279 29.7241V29.7224Z" fill="#191919"/>
</svg>
