<svg width="750" height="750" viewBox="0 0 750 750" fill="none" xmlns="http://www.w3.org/2000/svg">
<g transform="scale(31.25)">
<path d="M12.186 24h-.007c-3.581-.024-6.334-1.205-8.184-3.509C2.35 18.44 1.5 15.586 1.472 12.01c.028-3.579.879-6.432 2.523-8.478C5.845 1.205 8.6.024 12.18 0h.014c2.746.02 5.043.725 6.826 2.098 1.677 1.29 2.858 3.13 3.509 5.467l-2.04.569c-1.104-3.96-3.898-5.984-8.304-6.015-2.91.022-5.11.936-6.54 2.717C4.307 6.504 3.616 8.914 3.59 12c.025 3.083.717 5.496 2.057 7.164 1.43 1.783 3.631 2.698 6.539 2.717 2.623-.02 4.358-.631 5.8-2.045 1.647-1.613 2.482-3.878 2.516-6.8.003-.144 0-.29-.004-.432-.06-.964-.235-1.857-.523-2.502-.336-.753-.814-1.3-1.512-1.517-.425-.132-.9-.17-1.327-.14l-.033.002c.353.372.574.893.64 1.54.08.789-.02 1.858-.362 2.77-.519 1.378-1.594 2.486-3.212 2.604l-.234.006c-1.266 0-2.416-.58-3.082-1.555-.599-.877-.752-1.98-.429-3.109.651-2.273 2.81-4.662 6.627-4.662.325 0 .662.017 1.003.05 1.898.182 3.388.872 4.433 2.05.945 1.064 1.527 2.5 1.65 4.083.01.113.015.226.015.34.025 3.603-.88 6.473-2.694 8.543-1.86 2.12-4.534 3.258-7.95 3.386l-.131.003zm-2.511-9.865c.108.313.368.497.81.497l.13-.004c.838-.062 1.418-.614 1.727-1.436.227-.603.291-1.393.235-1.95-.058-.566-.256-.92-.595-1.078-.164-.077-.38-.126-.657-.126-.926 0-2.206.807-2.56 2.042-.157.548-.084 1.062.91 1.555z" fill="#FFFAEE"/>
</g>
</svg>
