<svg width="750" height="750" viewBox="0 0 750 750" fill="none" xmlns="http://www.w3.org/2000/svg">
<g clip-path="url(#clip0_91_4544)">
<path d="M699.584 396.447C694.002 384.786 687.386 375.613 679.809 368.854C672.195 362.095 661.809 356.19 648.613 351.065C635.418 345.978 623.886 342.375 614.054 340.333C604.222 338.29 591.692 336.062 576.501 333.611C572.916 333.202 568.221 332.497 562.418 331.457C556.615 330.454 552.032 329.6 548.669 329.006C545.305 328.375 541.055 327.669 535.917 326.852C530.779 326.035 526.75 325.218 523.83 324.401C520.91 323.584 517.658 322.544 514.109 321.319C510.524 320.093 507.752 318.868 505.719 317.642C503.723 316.416 501.69 315.005 499.694 313.371C497.698 311.737 496.22 309.88 495.333 307.838C494.446 305.795 494.002 303.53 494.002 301.079C494.002 291.683 498.364 284.516 507.087 279.614C515.81 274.712 527.305 272.261 541.646 272.261C568.111 272.261 585.15 280.096 592.727 295.805C596.534 303.678 604.111 309.063 612.834 309.063H697.292C694.594 277.608 680.068 252.949 653.677 235.198C627.286 217.409 590.177 208.533 542.311 208.533C499.805 208.533 464.507 217.335 436.305 234.901C409.471 251.65 395.425 274.897 394.168 304.607C385.778 286.707 373.876 270.515 358.352 256.032C324.606 224.577 280.437 208.831 225.881 208.831C171.326 208.831 127.045 224.577 93.0406 256.032C59.0727 287.524 42.0703 327.149 42.0703 374.982C42.0703 422.814 59.0727 462.439 93.0406 493.931C127.009 525.424 171.289 541.133 225.844 541.133C280.4 541.133 324.569 525.386 358.315 493.931C370.845 482.27 381.01 469.495 388.883 455.569C395.61 478.334 409.914 497.088 431.869 511.72C461.587 531.551 501.505 541.467 551.626 541.467C598.124 541.467 635.825 532.48 664.655 514.505C693.485 496.531 707.937 470.758 707.937 437.26C707.937 421.737 705.128 408.145 699.547 396.484L699.584 396.447ZM279.217 305.387C290.823 321.244 297.107 341.967 298.142 367.48C266.502 358.27 245.656 327.78 234.161 279.799C253.122 281.805 268.166 290.309 279.217 305.387ZM217.343 279.725C205.848 328.672 184.706 359.235 152.956 367.628C153.954 341.67 160.089 320.799 171.547 305.127C182.599 289.975 197.901 281.508 217.343 279.762V279.725ZM171.547 444.242C159.017 427.085 152.771 403.986 152.771 374.982C152.771 374.276 152.808 373.645 152.808 372.976C186.369 382.595 206.772 416.315 217.158 469.607C197.79 467.824 182.562 459.357 171.547 444.242ZM279.217 444.242C267.759 459.654 252.05 468.084 232.128 469.644C243.216 416.204 264.987 382 298.252 372.865C298.252 373.57 298.326 374.239 298.326 374.944C298.326 403.986 291.969 427.048 279.217 444.205V444.242ZM590.251 468.158C580.641 473.655 567.556 476.44 550.997 476.44C519.321 476.44 499.436 465.67 491.378 444.094C488.125 435.366 479.476 429.87 470.162 429.87H400.378C406.107 412.973 408.99 394.701 408.99 375.019C408.99 369.708 408.731 364.472 408.325 359.347C411.762 364.472 415.606 368.928 419.857 372.568C427.249 378.918 436.859 384.526 448.687 389.428C460.552 394.33 471.382 397.932 481.213 400.16C491.045 402.426 503.132 404.543 517.436 406.585C520.578 406.994 525.494 407.699 532.184 408.739C538.874 409.779 543.79 410.596 546.931 411.19C550.036 411.821 554.398 412.638 560.016 413.641C565.597 414.681 569.848 415.572 572.768 416.389C575.688 417.206 579.125 418.32 583.154 419.769C587.183 421.217 590.214 422.74 592.21 424.374C594.206 426.008 596.349 427.865 598.567 429.907C600.785 431.95 602.374 434.215 603.261 436.666C604.148 439.117 604.592 441.977 604.592 445.245C604.592 455.049 599.787 462.736 590.177 468.233L590.251 468.158Z" fill="#FFFAEE"/>
</g>
<defs>
<clipPath id="clip0_91_4544">
<rect width="750" height="750" fill="white"/>
</clipPath>
</defs>
</svg>
