<svg width="750" height="750" viewBox="0 0 750 750" fill="none" xmlns="http://www.w3.org/2000/svg">
<mask id="mask0_91_4548" style="mask-type:luminance" maskUnits="userSpaceOnUse" x="149" y="147" width="534" height="455">
<path d="M682.882 147H149V602H682.882V147Z" fill="white"/>
</mask>
<g mask="url(#mask0_91_4548)">
<path d="M533.635 531.5H466.745V426.787C466.745 401.817 466.3 369.673 431.957 369.673C397.12 369.673 391.789 396.879 391.789 424.969V531.493H324.901V316.16H389.114V345.588H390.013C396.439 334.604 405.725 325.569 416.882 319.443C428.039 313.318 440.649 310.332 453.369 310.804C521.162 310.804 533.663 355.381 533.663 413.372L533.635 531.5ZM249.429 286.726C241.752 286.728 234.247 284.453 227.863 280.191C221.478 275.928 216.503 269.869 213.563 262.779C210.624 255.689 209.854 247.888 211.35 240.361C212.847 232.834 216.542 225.919 221.97 220.491C227.398 215.064 234.313 211.367 241.843 209.868C249.372 208.37 257.177 209.137 264.27 212.072C271.363 215.008 277.426 219.98 281.692 226.361C285.959 232.741 288.237 240.242 288.238 247.917C288.239 253.012 287.236 258.058 285.286 262.766C283.336 267.475 280.478 271.752 276.874 275.356C273.271 278.96 268.992 281.819 264.282 283.77C259.573 285.721 254.527 286.725 249.429 286.726ZM282.873 531.5H215.915V316.16H282.873V531.5ZM566.982 147.028H182.304C173.573 146.929 165.159 150.3 158.913 156.399C152.667 162.498 149.099 170.827 148.992 179.555V565.691C149.095 574.424 152.661 582.757 158.907 588.864C165.153 594.969 173.569 598.347 182.304 598.252H566.982C575.734 598.363 584.174 594.994 590.445 588.89C596.713 582.785 600.303 574.44 600.427 565.691V179.527C600.3 170.782 596.706 162.444 590.438 156.345C584.167 150.246 575.731 146.885 566.982 147" fill="#FFFAEE"/>
</g>
</svg>
