<svg width="750" height="750" viewBox="0 0 750 750" fill="none" xmlns="http://www.w3.org/2000/svg">
<path d="M374.503 662.559C542.959 662.559 679.521 525.998 679.521 357.541C679.521 189.084 542.959 52.5225 374.503 52.5225C206.046 52.5225 69.4844 189.084 69.4844 357.541C69.4844 525.998 206.046 662.559 374.503 662.559Z" stroke="#FFFAEE" stroke-width="23.75" stroke-miterlimit="10"/>
<path d="M374.504 53.0393V662.559" stroke="#FFFAEE" stroke-width="23.75" stroke-miterlimit="10"/>
<path d="M374.505 662.559C458.734 662.559 527.014 525.998 527.014 357.541C527.014 189.084 458.734 52.5225 374.505 52.5225C290.277 52.5225 221.996 189.084 221.996 357.541C221.996 525.998 290.277 662.559 374.505 662.559Z" stroke="#FFFAEE" stroke-width="23.75" stroke-miterlimit="10"/>
<path d="M70 357.541H679.52" stroke="#FFFAEE" stroke-width="23.75" stroke-miterlimit="10"/>
</svg>
