<svg width="750" height="750" viewBox="0 0 750 750" fill="none" xmlns="http://www.w3.org/2000/svg">
<g clip-path="url(#clip0_91_4561)">
<path d="M388.456 596.414L256.65 593.995C213.975 593.153 171.193 594.835 129.355 586.104C65.7084 573.052 61.1995 509.073 56.4814 455.403C49.9803 379.952 52.4971 303.131 64.7655 228.31C71.6914 186.327 98.9478 161.276 141.098 158.55C283.388 148.657 426.625 149.829 568.599 154.445C583.594 154.868 598.692 157.18 613.477 159.813C686.458 172.652 688.239 245.157 692.97 306.193C697.688 367.859 695.695 429.841 686.677 491.087C679.443 541.798 665.602 584.323 607.185 588.427C533.991 593.797 462.479 598.118 389.082 596.743C389.085 596.414 388.665 596.414 388.456 596.414ZM310.967 468.031C366.124 436.25 420.227 404.997 475.068 373.427C419.808 341.645 365.807 310.392 310.967 278.823V468.031Z" fill="#FFFAEE"/>
</g>
<defs>
<clipPath id="clip0_91_4561">
<rect width="750" height="750" fill="white"/>
</clipPath>
</defs>
</svg>
