<svg width="750" height="750" viewBox="0 0 750 750" fill="none" xmlns="http://www.w3.org/2000/svg">
<mask id="mask0_91_4559" style="mask-type:luminance" maskUnits="userSpaceOnUse" x="52" y="193" width="644" height="364">
<path d="M695.862 193H52V557H695.862V193Z" fill="white"/>
</mask>
<g mask="url(#mask0_91_4559)">
<path d="M415.176 375.003C415.176 475.517 333.875 557 233.591 557C133.307 557 52 475.499 52 375.003C52 274.507 133.301 193 233.591 193C333.883 193 415.176 274.489 415.176 375.003ZM614.382 375.003C614.382 469.615 573.731 546.345 523.586 546.345C473.442 546.345 432.791 469.615 432.791 375.003C432.791 280.39 473.434 203.661 523.581 203.661C573.726 203.661 614.377 280.366 614.377 375.003H614.382ZM695.862 375.003C695.862 459.754 681.568 528.499 663.93 528.499C646.291 528.499 632.002 459.772 632.002 375.003C632.002 290.235 646.296 221.508 663.93 221.508C681.561 221.508 695.862 290.229 695.862 375.003Z" fill="#FFFAEE"/>
</g>
</svg>
