<svg width="750" height="750" viewBox="0 0 750 750" fill="none" xmlns="http://www.w3.org/2000/svg">
<mask id="mask0_91_4546" style="mask-type:luminance" maskUnits="userSpaceOnUse" x="182" y="86" width="386" height="578">
<path d="M568 86H182V664H568V86Z" fill="white"/>
</mask>
<g mask="url(#mask0_91_4546)">
<path d="M375 375C375 349.451 385.167 324.948 403.264 306.882C421.361 288.816 445.907 278.667 471.5 278.667C497.093 278.667 521.639 288.816 539.736 306.882C557.833 324.948 568 349.451 568 375C568 400.549 557.833 425.052 539.736 443.118C521.639 461.184 497.093 471.333 471.5 471.333C445.907 471.333 421.361 461.184 403.264 443.118C385.167 425.052 375 400.549 375 375Z" fill="#FFFAEE"/>
<path d="M182 567.667C182 542.118 192.167 517.613 210.264 499.547C228.361 481.483 252.907 471.333 278.5 471.333H375V567.667C375 593.215 364.833 617.72 346.736 635.786C328.639 653.849 304.093 664 278.5 664C252.907 664 228.361 653.849 210.264 635.786C192.167 617.72 182 593.215 182 567.667Z" fill="#FFFAEE"/>
<path d="M375 86V278.667H471.5C497.093 278.667 521.639 268.517 539.736 250.451C557.833 232.385 568 207.883 568 182.333C568 156.784 557.833 132.281 539.736 114.215C521.639 96.1494 497.093 86 471.5 86H375Z" fill="#FFFAEE"/>
<path d="M182 182.333C182 207.883 192.167 232.385 210.264 250.451C228.361 268.517 252.907 278.667 278.5 278.667H375V86H278.5C252.907 86 228.361 96.1494 210.264 114.215C192.167 132.281 182 156.784 182 182.333Z" fill="#FFFAEE"/>
<path d="M182 375C182 400.549 192.167 425.052 210.264 443.118C228.361 461.184 252.907 471.333 278.5 471.333H375V278.667H278.5C252.907 278.667 228.361 288.816 210.264 306.882C192.167 324.948 182 349.451 182 375Z" fill="#FFFAEE"/>
</g>
</svg>
