<svg width="750" height="750" viewBox="0 0 750 750" fill="none" xmlns="http://www.w3.org/2000/svg">
<path d="M375 87.5C216.25 87.5 87.5 216.25 87.5 375C87.5 499.375 167.5 605.625 279.375 645.625C293.125 648.125 298.125 639.375 298.125 631.875C298.125 625.125 297.875 604.375 297.75 580.625C218.75 598.125 202.5 541.875 202.5 541.875C190 506.25 172.125 497.5 172.125 497.5C147.5 480.625 174.125 481 174.125 481C201.5 482.875 215.875 509.125 215.875 509.125C240.625 550.625 280.875 537.5 298.75 530.25C301.25 512.5 308.5 500.625 316.5 493.875C253.125 487.125 186.875 463.125 186.875 355.625C186.875 321.875 198.125 294.375 216.5 272.75C213.625 266 204 234.75 219.25 192.5C219.25 192.5 242.5 185.375 297.5 225C319.375 219.125 342.75 216.125 366.25 216C389.75 216.125 413.125 219.125 435 225C489.875 185.375 513.125 192.5 513.125 192.5C528.375 234.75 518.75 266 515.875 272.75C534.375 294.375 545.5 321.875 545.5 355.625C545.5 463.375 479.125 487 415.5 493.625C425.5 502.25 434.5 519.375 434.5 545.375C434.5 582.125 434.125 611.75 434.125 631.875C434.125 639.5 439.125 648.375 453 645.5C564.75 605.5 644.625 499.25 644.625 375C644.625 216.25 515.875 87.5 375 87.5Z" stroke="#FFFAEE" stroke-width="23.75" stroke-linejoin="round"/>
<path d="M186.875 520C186.875 520 189.375 514.375 197.5 511.25" stroke="#FFFAEE" stroke-width="23.75" stroke-linecap="round"/>
<path d="M216.875 572.5C216.875 572.5 217.5 561.25 228.75 555" stroke="#FFFAEE" stroke-width="23.75" stroke-linecap="round"/>
<path d="M260 593.75C260 593.75 258.125 582.5 270 576.25" stroke="#FFFAEE" stroke-width="23.75" stroke-linecap="round"/>
<path d="M297.75 580.625C297.75 580.625 297.5 575.625 302.5 570" stroke="#FFFAEE" stroke-width="23.75" stroke-linecap="round"/>
</svg>
