<svg width="750" height="750" viewBox="0 0 750 750" fill="none" xmlns="http://www.w3.org/2000/svg">
<path d="M375.27 220.61C369.941 220.61 364.67 220.882 359.477 221.414C354.284 221.946 349.162 222.734 344.128 223.768C339.094 224.803 334.15 226.085 329.304 227.597L315.081 232.819L301.54 239.358L288.762 247.133L276.822 256.064L265.805 266.071L255.787 277.079L246.847 289.005L239.062 301.772L232.52 315.297C230.553 319.923 228.804 324.667 227.29 329.508C225.776 334.35 224.494 339.293 223.457 344.321C222.421 349.349 221.633 354.464 221.099 359.654C220.565 364.844 220.297 370.109 220.297 375.432C220.297 380.755 220.569 386.02 221.099 391.209C221.626 396.358 222.413 401.476 223.457 406.544C224.494 411.592 225.776 416.515 227.29 421.357C228.804 426.199 230.551 430.94 232.52 435.568L239.062 449.094L246.847 461.858L255.787 473.786L265.805 484.794L276.822 494.803L288.762 503.733L301.54 511.506L315.081 518.046L329.304 523.268L344.128 527.098C349.201 528.142 354.324 528.929 359.477 529.455C364.724 529.989 369.996 530.258 375.27 530.254C380.599 530.254 385.87 529.985 391.061 529.455C396.214 528.929 401.337 528.142 406.41 527.098L421.236 523.268L435.459 518.046L448.998 511.506L461.778 503.733L473.718 494.803L484.737 484.794L494.756 473.786L503.695 461.858L511.48 449.094L518.024 435.568L523.251 421.357C524.766 416.515 526.05 411.572 527.085 406.544L529.441 391.207C529.976 386.018 530.245 380.753 530.245 375.43C530.245 370.106 529.976 364.841 529.441 359.652C528.915 354.504 528.128 349.387 527.085 344.319C526.05 339.272 524.766 334.35 523.251 329.506L518.024 315.295L511.48 301.769L503.695 289.003L494.756 277.077L484.737 266.069L473.718 256.061L461.778 247.131L448.998 239.356L435.459 232.818L421.236 227.595L406.41 223.767L391.061 221.412C385.815 220.876 380.544 220.61 375.27 220.61ZM375.27 274.049C378.794 274.049 382.271 274.223 385.695 274.569L395.791 276.097L405.542 278.581L414.88 281.973L423.758 286.225L432.106 291.282L439.91 297.101L447.105 303.627L453.638 310.814L459.462 318.611L464.525 326.971L468.777 335.843C470.054 338.879 471.188 341.991 472.174 345.173C473.16 348.355 473.99 351.607 474.659 354.919C475.329 358.231 475.824 361.601 476.187 365.024L476.708 375.441C476.708 378.961 476.533 382.436 476.187 385.861C475.842 389.286 475.333 392.656 474.659 395.966C473.986 399.276 473.155 402.527 472.174 405.711L468.777 415.042L464.525 423.914L459.462 432.272L453.638 440.07L447.105 447.257L439.91 453.784L432.106 459.603L423.758 464.66L414.88 468.911L405.542 472.303L395.791 474.788L385.695 476.314C382.231 476.661 378.75 476.835 375.268 476.834C371.785 476.835 368.304 476.661 364.839 476.314L354.744 474.788C351.43 474.116 348.176 473.286 344.99 472.303L335.652 468.911L326.774 464.66L318.426 459.603L310.622 453.784L303.427 447.257L296.894 440.07L291.07 432.272L286.007 423.914L281.755 415.042L278.358 405.711L275.873 395.966L274.345 385.861C273.998 382.399 273.824 378.921 273.825 375.441C273.824 371.962 273.998 368.485 274.345 365.024C274.689 361.601 275.199 358.229 275.873 354.919C276.54 351.632 277.37 348.38 278.36 345.175L281.757 335.845L286.009 326.973L291.072 318.613L296.896 310.816L303.429 303.629L310.624 297.102L318.428 291.284L326.776 286.227L335.654 281.975C338.71 280.692 341.827 279.56 344.994 278.584L354.748 276.099C358.062 275.427 361.436 274.914 364.843 274.571C368.309 274.224 371.787 274.048 375.27 274.049Z" fill="#FFFAEE"/>
<path d="M536.524 176.567C535.295 176.567 534.066 176.629 532.842 176.754C531.617 176.877 530.401 177.062 529.193 177.309C527.989 177.555 526.794 177.861 525.62 178.227C524.442 178.593 523.289 179.018 522.153 179.5C521.02 179.983 519.914 180.523 518.832 181.118C517.751 181.711 516.703 182.358 515.689 183.057C514.67 183.757 513.69 184.507 512.751 185.305C511.808 186.103 510.908 186.947 510.049 187.835C509.195 188.723 508.383 189.655 507.617 190.625C506.851 191.595 506.136 192.603 505.471 193.645C504.806 194.687 504.196 195.761 503.636 196.864C503.08 197.968 502.575 199.099 502.129 200.254C501.683 201.408 501.296 202.584 500.964 203.777C500.635 204.971 500.366 206.18 500.16 207.4C499.949 208.62 499.802 209.85 499.714 211.085C499.651 211.96 499.621 212.837 499.621 213.714C499.621 214.953 499.68 216.191 499.806 217.424C499.928 218.656 500.113 219.881 500.358 221.095C500.602 222.308 500.905 223.509 501.267 224.692C501.633 225.875 502.054 227.04 502.533 228.181C503.013 229.322 503.547 230.438 504.141 231.526C504.73 232.613 505.374 233.67 506.068 234.692C506.763 235.714 507.508 236.7 508.299 237.647C509.094 238.595 509.932 239.502 510.815 240.365C511.699 241.228 512.621 242.045 513.589 242.815C514.552 243.585 515.554 244.306 516.589 244.976C517.624 245.645 518.693 246.262 519.787 246.824C520.886 247.386 522.009 247.893 523.154 248.342C524.303 248.791 525.469 249.182 526.655 249.513C527.842 249.843 529.042 250.114 530.254 250.324C531.466 250.535 532.69 250.685 533.915 250.773C534.786 250.835 535.657 250.866 536.528 250.866C537.757 250.866 538.99 250.805 540.215 250.681C541.435 250.558 542.655 250.372 543.859 250.126C545.067 249.881 546.258 249.574 547.436 249.208C548.61 248.842 549.768 248.417 550.9 247.935C552.032 247.452 553.143 246.913 554.22 246.319C555.302 245.725 556.349 245.077 557.368 244.378C558.382 243.679 559.363 242.929 560.305 242.132C561.244 241.333 562.144 240.489 563.003 239.6C563.861 238.712 564.673 237.78 565.435 236.81C566.201 235.84 566.917 234.832 567.581 233.79C568.246 232.748 568.861 231.672 569.416 230.569C569.976 229.465 570.481 228.333 570.927 227.179C571.373 226.025 571.76 224.849 572.089 223.655C572.417 222.462 572.686 221.253 572.897 220.033C573.107 218.813 573.254 217.583 573.338 216.348C573.402 215.473 573.435 214.597 573.435 213.72C573.435 212.481 573.372 211.243 573.25 210.011C573.128 208.779 572.943 207.554 572.699 206.34C572.455 205.127 572.147 203.926 571.786 202.743C571.419 201.56 570.999 200.395 570.519 199.254C570.039 198.113 569.505 196.996 568.915 195.909C568.326 194.822 567.682 193.765 566.988 192.743C566.289 191.72 565.545 190.734 564.753 189.786C563.958 188.839 563.121 187.931 562.241 187.068C561.357 186.205 560.431 185.388 559.468 184.618C558.504 183.848 557.503 183.128 556.467 182.459C555.432 181.79 554.363 181.173 553.265 180.611C552.166 180.049 551.043 179.542 549.898 179.093C548.753 178.644 547.583 178.253 546.397 177.922C545.214 177.591 544.011 177.319 542.799 177.109C541.587 176.899 540.366 176.749 539.137 176.662C538.266 176.6 537.395 176.567 536.524 176.567Z" fill="#FFFAEE"/>
<path d="M345.878 72.5479C329.022 72.5207 313.98 72.5906 300.468 72.7808L264.242 73.7515C253.51 74.2175 244.028 74.8251 235.517 75.6113C231.262 76.0035 227.247 76.4422 223.442 76.9257C219.821 77.382 216.21 77.9135 212.611 78.5196C209.184 79.102 205.932 79.731 202.814 80.4143C199.697 81.0977 196.719 81.8354 193.845 82.6275C191.037 83.4021 188.249 84.254 185.488 85.1824C182.781 86.0949 180.141 87.0617 177.534 88.0945C172.319 90.1601 167.233 92.4781 161.995 95.0757C157.964 97.0753 154.241 99.1002 150.704 101.243C147.167 103.387 143.816 105.65 140.535 108.116C137.156 110.667 133.899 113.377 130.776 116.235C127.51 119.209 124.175 122.48 120.709 126.136C116.355 130.704 112.571 134.963 109.213 139.143C107.533 141.232 105.961 143.298 104.479 145.375C103.015 147.422 101.614 149.515 100.28 151.649C98.9601 153.766 97.7098 155.921 96.5139 158.138C95.2994 160.393 94.1515 162.684 93.0718 165.006C90.8625 169.751 88.8008 174.861 86.7429 180.565C85.2163 184.781 83.8492 189.054 82.6446 193.374C81.4158 197.789 80.3228 202.407 79.3482 207.402C78.3736 212.398 77.5233 217.77 76.7758 223.71C75.9704 230.222 75.327 236.753 74.8461 243.297C74.3025 250.491 73.8521 258.409 73.4832 267.22L72.6096 296.52L72.1398 332.236L72.0039 375.406L72.4019 438.185L73.6444 485.749L74.6015 504.326L75.7974 519.725C76.1807 523.874 76.6604 528.011 77.236 532.139C77.7601 535.805 78.3231 539.011 78.9288 541.789C80.1579 547.432 81.6112 553.025 83.2853 558.555C84.8883 563.849 86.7214 569.067 88.7794 574.201C90.8024 579.23 93.0155 584.078 95.4229 588.745C97.8302 593.412 100.432 597.899 103.227 602.208C106.023 606.513 109.013 610.646 112.204 614.601C115.392 618.557 118.783 622.341 122.364 625.947C125.949 629.558 129.731 632.992 133.717 636.257C137.749 639.561 141.942 642.667 146.278 645.558C150.302 648.247 154.284 650.713 158.295 652.973C162.305 655.237 166.351 657.287 170.51 659.155C174.668 661.019 178.932 662.698 183.385 664.209C187.839 665.72 192.479 667.063 197.383 668.253C202.287 669.449 207.478 670.492 212.972 671.406C218.466 672.319 224.339 673.101 230.613 673.775C236.888 674.448 243.582 675.004 250.775 675.471C257.968 675.938 265.655 676.308 273.916 676.607C286.677 677.07 305.993 677.339 328.269 677.444L400.382 677.297L468.668 676.342L494.633 675.61L511.547 674.743C515.178 674.444 518.73 674.095 522.16 673.686C525.59 673.278 528.969 672.811 532.264 672.277C535.555 671.746 538.774 671.153 541.935 670.492C545.062 669.84 548.172 669.112 551.261 668.312C554.32 667.534 557.337 666.65 560.325 665.712C563.309 664.777 566.267 663.763 569.205 662.673C572.159 661.579 575.084 660.413 577.983 659.18C580.9 657.935 583.812 656.609 586.737 655.199C591.227 653.036 594.842 651.231 598.015 649.472C601.003 647.835 603.877 646.004 606.625 643.988C609.336 641.993 612.029 639.721 615.135 636.859C618.24 633.998 621.763 630.551 626.118 626.191C629.952 622.362 633.18 619.033 635.966 616.007C638.752 612.981 641.1 610.258 643.158 607.632C645.119 605.141 646.945 602.549 648.633 599.864C650.278 597.242 651.793 594.519 653.334 591.502C655.657 586.961 657.723 582.753 659.57 578.692C661.367 574.782 663.009 570.797 664.49 566.757C665.95 562.746 667.217 558.668 668.282 554.536C669.376 550.285 670.319 545.795 671.135 540.871C671.947 535.948 672.637 530.59 673.235 524.606C673.832 518.626 674.342 512.011 674.788 504.583L675.975 479.641L676.989 448.624L677.717 414.067L677.994 377.934L677.346 306.966L676.48 275.18L675.297 247.888L673.82 226.61C673.285 220.689 672.705 216.026 672.094 212.873C671.413 209.389 670.655 205.922 669.818 202.473C669.001 199.117 668.105 195.782 667.129 192.469C666.178 189.242 665.142 186.04 664.027 182.865C662.924 179.73 661.755 176.66 660.53 173.657C659.31 170.654 657.984 167.721 656.608 164.849C655.227 161.978 653.784 159.176 652.269 156.439C650.75 153.702 649.172 151.033 647.518 148.429C645.868 145.826 644.147 143.288 642.354 140.818C640.574 138.357 638.714 135.952 636.782 133.606C634.859 131.274 632.864 129.003 630.798 126.796C628.736 124.592 626.602 122.455 624.406 120.386C622.205 118.316 619.941 116.312 617.605 114.375C615.257 112.431 612.854 110.561 610.388 108.766C607.901 106.954 605.359 105.217 602.762 103.56C600.132 101.878 597.455 100.275 594.728 98.7527C591.959 97.2046 589.14 95.7363 586.287 94.3496C581.544 92.0452 577.159 90.0009 572.858 88.1877C568.624 86.3881 564.311 84.7899 559.93 83.3983C555.524 82.0102 550.937 80.8201 545.891 79.7931C540.841 78.7661 535.336 77.91 529.108 77.1819C522.88 76.4539 515.923 75.8657 507.965 75.3765C500.011 74.8873 491.062 74.5028 480.845 74.1922L446.121 73.4157L402.174 72.8973L345.897 72.5517L345.878 72.5479ZM375.105 125.94L456.261 126.402L486.876 126.992C495.307 127.229 501.741 127.507 505.512 127.827C510.427 128.241 515.103 128.759 519.58 129.38C523.873 129.973 528.148 130.71 532.39 131.591C536.468 132.446 540.357 133.416 544.081 134.511C547.801 135.606 551.357 136.833 554.766 138.19C558.179 139.547 561.441 141.04 564.58 142.675C567.694 144.297 570.72 146.082 573.645 148.023C576.557 149.955 579.364 152.036 582.091 154.278C584.814 156.521 587.456 158.924 590.036 161.494C592.763 164.207 595.276 166.969 597.59 169.819C599.896 172.652 602.034 175.62 603.983 178.709C605.956 181.841 607.732 185.093 609.306 188.445C610.914 191.862 612.357 195.473 613.653 199.311C614.954 203.149 616.107 207.228 617.129 211.586C618.203 216.207 619.099 220.866 619.823 225.555C620.597 230.525 621.262 235.825 621.826 241.499C622.386 247.174 622.853 253.225 623.236 259.7C623.543 264.893 623.812 271.746 624.039 279.839L624.608 307.436L625.041 375.035L624.549 442.57L623.955 470.088L623.135 490.101C622.571 499.474 621.973 507.352 621.258 514.207C620.9 517.637 620.509 520.81 620.079 523.786C619.675 526.597 619.196 529.395 618.644 532.181C618.139 534.723 617.554 537.248 616.885 539.756C616.25 542.142 615.53 544.512 614.735 546.856C613.931 549.208 613.06 551.535 612.117 553.833C611.12 556.266 610.068 558.668 608.961 561.05C607.976 563.176 606.941 565.246 605.847 567.258C604.765 569.252 603.612 571.205 602.4 573.12C601.197 575.018 599.934 576.861 598.613 578.645C597.3 580.421 595.924 582.151 594.484 583.83C593.054 585.505 591.56 587.121 590.007 588.687C588.454 590.248 586.842 591.754 585.171 593.21C583.505 594.667 581.771 596.068 579.978 597.415C578.19 598.761 576.334 600.053 574.419 601.29C572.5 602.532 570.526 603.719 568.485 604.855C566.444 605.987 564.34 607.069 562.177 608.1C559.972 609.147 557.741 610.128 555.477 611.041C553.142 611.984 550.781 612.859 548.395 613.671C543.538 615.325 538.421 616.777 533.03 618.027C527.416 619.327 521.748 620.388 516.041 621.209C513.844 621.528 508.803 621.831 501.581 622.109L474.061 622.875L396.037 623.889L314.371 624.015L282.299 623.675L261.473 623.026L246.117 621.945C241.349 621.545 236.915 621.099 232.76 620.59C228.606 620.085 224.737 619.521 221.097 618.881C217.647 618.288 214.219 617.573 210.817 616.748C207.715 615.994 204.645 615.115 201.615 614.113C198.693 613.141 195.899 612.072 193.182 610.898C190.463 609.724 187.823 608.436 185.208 607.031C182.593 605.625 180.005 604.102 177.388 602.435C175.414 601.181 173.505 599.91 171.669 598.568C169.832 597.221 168.058 595.879 166.35 594.473C164.641 593.067 163.001 591.62 161.418 590.13C159.846 588.644 158.329 587.104 156.868 585.513C155.412 583.923 154.02 582.29 152.684 580.598C151.343 578.898 150.065 577.147 148.854 575.355C147.624 573.532 146.46 571.668 145.365 569.766C144.258 567.843 143.206 565.856 142.206 563.803C141.19 561.715 140.241 559.594 139.362 557.444C138.469 555.251 137.623 552.991 136.827 550.66C135.235 545.989 133.837 541.019 132.622 535.72C131.407 530.422 130.37 524.791 129.492 518.79C128.615 512.793 127.908 506.43 127.345 499.672C126.93 494.693 126.6 486.937 126.347 477.152L125.819 442.353L126.013 353.641L127.541 268.873L128.706 239.006L129.366 229.134C129.595 226.498 129.832 224.545 130.075 223.372C130.875 219.515 131.68 215.925 132.513 212.565C133.291 209.394 134.157 206.246 135.109 203.124C136.013 200.177 136.967 197.416 137.986 194.801C138.968 192.267 140.064 189.779 141.269 187.344C142.445 184.976 143.709 182.708 145.082 180.501C146.454 178.293 147.936 176.152 149.551 174.022C151.166 171.892 152.905 169.79 154.798 167.658C156.691 165.527 158.735 163.374 160.952 161.155C163.536 158.556 166.227 156.066 169.017 153.69C171.652 151.449 174.399 149.343 177.248 147.383C180.05 145.441 182.923 143.713 185.915 142.125C188.907 140.537 192.017 139.102 195.288 137.812C198.559 136.52 201.995 135.365 205.635 134.317C209.46 133.244 213.326 132.329 217.225 131.574C221.326 130.77 225.68 130.069 230.33 129.458C234.98 128.846 239.926 128.318 245.215 127.86C248.903 127.542 255.259 127.258 263.629 127.019L294.089 126.418L375.119 125.922L375.105 125.94Z" fill="#FFFAEE"/>
</svg>
